<svg xmlns="http://www.w3.org/2000/svg" viewBox="0 0 24 24" role="img" aria-labelledby="t"><title id="t">Gemini</title><defs><linearGradient id="a" x1="4" y1="19" x2="20" y2="5" gradientUnits="userSpaceOnUse"><stop stop-color="#08B962"/><stop offset=".38" stop-color="#3186FF"/><stop offset=".68" stop-color="#A142F4"/><stop offset="1" stop-color="#F94543"/></linearGradient></defs><path fill="url(#a)" d="M20.616 10.835a14.147 14.147 0 0 1-4.45-3.001 14.111 14.111 0 0 1-3.678-6.452.503.503 0 0 0-.975 0 14.134 14.134 0 0 1-3.679 6.452 14.155 14.155 0 0 1-4.45 3.001c-.65.28-1.318.505-2.002.678a.502.502 0 0 0 0 .975c.684.172 1.35.397 2.002.677a14.147 14.147 0 0 1 4.45 3.001 14.112 14.112 0 0 1 3.679 6.453.502.502 0 0 0 .975 0c.172-.685.397-1.351.677-2.003a14.145 14.145 0 0 1 3.001-4.45 14.113 14.113 0 0 1 6.453-3.678.503.503 0 0 0 0-.975 13.245 13.245 0 0 1-2.003-.678z"/></svg>